<svg viewBox='0 0 310 160' fill="none" xmlns="http://www.w3.org/2000/svg">
  <path d="M93.97 149v-18.3h12.15v-22.65H93.97v-59.1H58.12L20.17 110.6v20.1h47.85V149h25.95Zm-25.95-40.95h-22.8l22.8-36.6v36.6ZM156.1 150.8c29.25 0 42.9-25.35 42.9-51.75s-13.65-51.6-42.9-51.6-42.9 25.2-42.9 51.6c0 26.4 13.65 51.75 42.9 51.75Zm0-22.8c-12 0-16.8-11.25-16.8-28.95s4.8-28.8 16.8-28.8 16.8 11.1 16.8 28.8c0 17.7-4.8 28.95-16.8 28.95Zm123.904 21v-18.3h12.15v-22.65h-12.15v-59.1h-35.85l-37.95 61.65v20.1h47.85V149h25.95Zm-25.95-40.95h-22.8l22.8-36.6v36.6Z" fill="#fff"/>
  <path d="M91.763 144v1h1v-1h-1Zm0-18.3v-1h-1v1h1Zm12.15 0v1h1v-1h-1Zm0-22.65h1v-1h-1v1Zm-12.15 0h-1v1h1v-1Zm0-59.1h1v-1h-1v1Zm-35.85 0v-1h-.558l-.293.476.851.524Zm-37.95 61.65-.851-.524-.149.241v.283h1Zm0 20.1h-1v1h1v-1Zm47.85 0h1v-1h-1v1Zm0 18.3h-1v1h1v-1Zm0-40.95v1h1v-1h-1Zm-22.8 0-.848-.529-.953 1.529h1.801v-1Zm22.8-36.6h1v-3.497l-1.848 2.968.848.529ZM92.763 144v-18.3h-2V144h2Zm-1-17.3h12.15v-2h-12.15v2Zm13.15-1v-22.65h-2v22.65h2Zm-1-23.65h-12.15v2h12.15v-2Zm-11.15 1v-59.1h-2v59.1h2Zm-1-60.1h-35.85v2h35.85v-2Zm-36.701.476-37.95 61.65 1.703 1.048 37.95-61.65-1.703-1.048ZM16.963 105.6v20.1h2v-20.1h-2Zm1 21.1h47.85v-2h-47.85v2Zm46.85-1V144h2v-18.3h-2Zm1 19.3h25.95v-2h-25.95v2Zm0-42.95h-22.8v2h22.8v-2Zm-21.95 1.529 22.8-36.6-1.698-1.058-22.8 36.6 1.697 1.058Zm20.95-37.129v36.6h2v-36.6h-2Zm89.082 80.35c14.956 0 25.975-6.499 33.225-16.384 7.225-9.85 10.675-23.011 10.675-36.366h-2c0 13.045-3.375 25.759-10.288 35.184-6.887 9.39-17.318 15.566-31.612 15.566v2Zm43.9-52.75c0-13.356-3.45-26.48-10.676-36.293-7.251-9.847-18.27-16.307-33.224-16.307v2c14.297 0 24.727 6.14 31.614 15.493 6.911 9.387 10.286 22.063 10.286 35.107h2Zm-43.9-52.6c-14.953 0-25.973 6.46-33.224 16.307-7.226 9.813-10.676 22.937-10.676 36.293h2c0-13.044 3.375-25.72 10.287-35.107 6.886-9.353 17.317-15.493 31.613-15.493v-2Zm-43.9 52.6c0 13.355 3.45 26.516 10.675 36.366 7.25 9.885 18.269 16.384 33.225 16.384v-2c-14.294 0-24.725-6.176-31.612-15.566-6.913-9.425-10.288-22.139-10.288-35.184h-2Zm43.9 27.95c-2.838 0-5.2-.663-7.159-1.883-1.962-1.222-3.576-3.039-4.86-5.428-2.583-4.808-3.781-11.847-3.781-20.639h-2c0 8.908 1.202 16.344 4.019 21.586 1.416 2.635 3.252 4.738 5.565 6.178 2.316 1.443 5.054 2.186 8.216 2.186v-2Zm-15.8-27.95c0-8.792 1.198-15.793 3.779-20.561 1.283-2.37 2.896-4.168 4.858-5.377 1.96-1.207 4.323-1.862 7.163-1.862v-2c-3.16 0-5.896.733-8.212 2.16-2.313 1.425-4.15 3.508-5.567 6.126-2.819 5.207-4.021 12.606-4.021 21.514h2Zm15.8-27.8c2.84 0 5.204.655 7.163 1.862 1.962 1.21 3.575 3.007 4.858 5.377 2.581 4.768 3.779 11.769 3.779 20.561h2c0-8.908-1.202-16.307-4.021-21.514-1.417-2.618-3.254-4.701-5.567-6.126-2.315-1.427-5.052-2.16-8.212-2.16v2Zm15.8 27.8c0 8.792-1.198 15.831-3.781 20.639-1.284 2.389-2.898 4.206-4.86 5.428-1.959 1.22-4.321 1.883-7.159 1.883v2c3.162 0 5.9-.743 8.216-2.186 2.313-1.44 4.149-3.543 5.565-6.178 2.817-5.242 4.019-12.678 4.019-21.586h-2ZM277.799 144v1h1v-1h-1Zm0-18.3v-1h-1v1h1Zm12.15 0v1h1v-1h-1Zm0-22.65h1v-1h-1v1Zm-12.15 0h-1v1h1v-1Zm0-59.1h1v-1h-1v1Zm-35.85 0v-1h-.559l-.293.476.852.524Zm-37.95 61.65-.852-.524-.148.241v.283h1Zm0 20.1h-1v1h1v-1Zm47.85 0h1v-1h-1v1Zm0 18.3h-1v1h1v-1Zm0-40.95v1h1v-1h-1Zm-22.8 0-.849-.529-.953 1.529h1.802v-1Zm22.8-36.6h1v-3.497L251 65.921l.849.529Zm26.95 77.55v-18.3h-2V144h2Zm-1-17.3h12.15v-2h-12.15v2Zm13.15-1v-22.65h-2v22.65h2Zm-1-23.65h-12.15v2h12.15v-2Zm-11.15 1v-59.1h-2v59.1h2Zm-1-60.1h-35.85v2h35.85v-2Zm-36.702.476-37.95 61.65 1.703 1.048 37.95-61.65-1.703-1.048ZM202.999 105.6v20.1h2v-20.1h-2Zm1 21.1h47.85v-2h-47.85v2Zm46.85-1V144h2v-18.3h-2Zm1 19.3h25.95v-2h-25.95v2Zm0-42.95h-22.8v2h22.8v-2Zm-21.952 1.529 22.8-36.6L251 65.92l-22.8 36.6 1.697 1.058Zm20.952-37.129v36.6h2v-36.6h-2Z" fill="#333"/>
</svg>