<svg xmlns="http://www.w3.org/2000/svg" width="128" height="33" fill="none">
  <path fill="#000" d="M38.33 3.62c.992.323 1.215.77.843 1.688-.124.273.1.298.223.372 1.464.968 2.778 2.085 3.92 3.426 1.587 1.886 2.579 4.02 2.753 6.478.322 4.666-1.315 8.539-4.813 11.617-2.778 2.457-6.052 3.946-9.648 4.765-6.722 1.564-13.42 1.415-19.968-.869-3.274-1.141-6.176-2.904-8.433-5.61-3.051-3.623-3.92-7.818-2.63-12.36.77-2.73 2.63-4.766 4.813-6.479.396-.322.818-.595 1.24-.893.149-.1.149-.15.05-.323-.546-.745-.323-1.415.545-1.737.149-.05.223-.075.124-.249-.248-.52-.1-.993.273-1.34.843-.794 1.81-1.415 2.828-1.96.496-.274 1.017-.15 1.438.272.596.596 1.216 1.167 1.811 1.762.223.224.397.273.694.199 5.68-1.464 11.36-1.49 17.041-.074.273.074.447.024.67-.174.546-.571 1.14-1.092 1.687-1.663.495-.497 1.066-.596 1.637-.248.893.52 1.785 1.092 2.554 1.787.521.422.72.943.348 1.613Z"/>
  <path fill="#FFE600" d="M29.6 19.282a37.653 37.653 0 0 1 8.037-2.656c2.356-.496 4.737-.77 7.168-.447.224.025.372.075.348.373-.174 2.457-1.067 4.592-2.68 6.453l-.173.174c-.471-.819-1.19-.918-1.984-.72-4.291.968-8.632 1.093-12.973.646-.72-.075-1.463-.1-2.158-.224-1.34-.223-1.885-1.042-1.662-2.383.199-1.216.67-2.333 1.166-3.45 1.24-2.805 2.381-5.66 3.696-8.44.868-1.86 1.96-3.573 3.448-5.013.843-.82 1.662-1.638 2.505-2.482.273-.273.57-.348.893-.124.744.496 1.463.993 2.183 1.514.347.248.421.546.124.918a6.416 6.416 0 0 1-1.017.993c-.174.124-1.216.025-1.364-.124-.125-.149.024-.273.05-.397.074-.174.222-.298.42-.224.15.05.274.125.497.224-.124-.298.124-.348.297-.472-.694-.05-.322-.595-.52-.918-.199.248-.15.77-.497.744-.248-.024-.496-.347-.768-.546-.025.075-.05.125-.025.174.421.794.421.869-.199 1.514-.396.422-.818.82-1.24 1.241-.05.05-.173.1-.124.224.05.099.149.099.248.099.397 0 .695-.223.918-.521.422-.596.943-.77 1.587-.397.298.173.57.099.844-.075.496-.298 1.017-.422 1.587-.447.149 0 .323-.024.372.15.05.173-.05.322-.198.396a1.575 1.575 0 0 1-.447.15c-1.19.173-2.331.496-3.447 1.017a2.67 2.67 0 0 1-1.712.223c-.57-.099-.868.05-1.116.571-.77 1.763-1.34 3.575-1.24 5.56.099 1.738.074 3.475-.248 5.213-.174.472-.397.918-.596 1.49ZM12.78 5.854c-.421-.447-.818-.844-1.165-1.29-.67-.795-.943-.67-.348-1.937a7.75 7.75 0 0 1-.52.373c-.397.322-.521.273-.695-.224-.025-.099-.025-.223-.124-.298-.223.273.174.844-.471.894 0 .199.496.124.173.521.745-.347.918-.322 1.042.124.025.1.075.174-.025.249-.248.198-1.19.223-1.438.024-.372-.297-.72-.62-.992-1.017-.199-.273-.15-.497.074-.695.074-.075.124-.15.198-.199.67-.471 1.315-.918 1.985-1.365.347-.248.67-.248 1.017.1a74.288 74.288 0 0 1 3.398 3.45c.893.968 1.563 2.06 2.133 3.251 1.712 3.5 3.126 7.124 4.688 10.673.298.695.496 1.39.57 2.135.15 1.191-.396 1.986-1.587 2.21-1.315.247-2.679.272-4.018.371-3.82.298-7.59.025-11.31-.794-.596-.124-1.167-.1-1.638.372-.149.15-.223.075-.298-.05C2.04 20.947 1.023 19.01 1 16.677c0-.297.074-.397.372-.446 2.306-.323 4.588-.075 6.846.372 2.604.546 5.11 1.34 7.49 2.482.1.05.199.149.373.1-.943-2.235-.794-4.568-.72-6.901.05-1.886-.52-3.624-1.24-5.312-.174-.422-.546-.67-1.042-.546-.769.174-1.463-.074-2.158-.397-.843-.397-1.711-.62-2.629-.77-.322-.05-.62-.074-.893-.248a.35.35 0 0 1-.174-.372c.05-.149.199-.149.323-.149.546 0 1.066.124 1.538.397.372.224.694.224 1.066.075.77-.298.77-.273 1.34.322.372.373.694.795 1.29.571Z"/>
  <path fill="#FFE600" d="M22.876 22.211c.62 1.142 1.637 1.465 2.753 1.54 2.828.223 5.655.52 8.483.322 2.059-.124 4.118-.372 6.151-.82.249-.049.521-.148.794-.099.298.05.447.249.57.522.1.273-.148.323-.247.447-2.282 2.134-4.961 3.599-7.913 4.542-7.937 2.532-15.8 2.308-23.49-1.067a17.697 17.697 0 0 1-5.506-3.724c-.1-.099-.298-.173-.223-.372.074-.198.248-.273.446-.323.174-.05.347 0 .521.025 3.994.869 8.012 1.142 12.08.77 1.042-.1 2.083-.174 3.125-.273.992-.1 1.885-.472 2.456-1.49ZM31.038 3.124c0 .025 0 .074-.025.074-1.86 1.763-2.951 4.021-3.968 6.305-1.29 2.854-2.456 5.758-3.721 8.638-.174.372-.273.77-.447 1.266-.57-1.936-1.488-3.6-2.207-5.362-.843-2.134-1.81-4.22-2.778-6.28-.794-1.663-1.786-3.202-3.125-4.492 2.43-1.415 13.096-1.465 16.271-.15ZM30.964 17.768c.248-1.489.372-2.978.248-4.418-.174-2.01.248-3.872.992-5.684.124-.323.248-.472.645-.397.868.149 1.662-.149 2.43-.521.893-.422 1.836-.596 2.779-.745a.386.386 0 0 1 .297.075c2.68 1.663 4.912 3.723 6.127 6.726.298.72.471 1.465.595 2.234.025.199.05.372-.248.323-4.713-.497-9.153.695-13.518 2.308-.1.025-.198.05-.347.1ZM14.716 17.744c-1.14-.447-2.282-.869-3.472-1.216-2.828-.844-5.73-1.366-8.707-1.192-.396.025-.793.05-1.19.124-.298.05-.372-.05-.347-.347.173-1.365.644-2.631 1.339-3.823 1.29-2.184 3.15-3.822 5.283-5.138.397-.248.819-.025 1.19.05.72.174 1.415.397 2.11.744a3.51 3.51 0 0 0 2.132.323c.224-.05.323.025.397.224.695 1.712 1.24 3.45 1.092 5.336a19.842 19.842 0 0 0 .198 4.691c.025.05.05.125-.025.224Z"/>
  <path fill="#000" d="M55.56 23.132v6.307c0 .393-.123.491-.49.467a18.377 18.377 0 0 0-1.644 0c-.245 0-.368-.025-.368-.344 0-3.804 0-7.608.025-11.412 0-1.055 1.3-1.988 2.305-1.767.294.074.172.27.172.417v6.332ZM72.8 26.716c.049-.909-.098-2.013.098-3.117.417-2.356 2.183-3.829 4.758-3.976 1.005-.05 1.005-.05 1.005.908 0 .466-.024.933 0 1.399.025.319-.098.393-.392.343-.147-.024-.319-.024-.49-.024-1.497.049-2.257.76-2.281 2.258-.05 1.62-.025 3.24-.025 4.86 0 .392-.049.588-.515.539-.589-.05-1.177-.024-1.741 0-.368.025-.442-.123-.417-.442.024-.834 0-1.693 0-2.748ZM57.596 24.924V20.31c0-.295.05-.418.392-.418.638.025 1.251.025 1.889 0 .27 0 .392.05.392.369-.024 3.092 0 6.184 0 9.276 0 .295-.049.393-.368.393-.637-.024-1.3-.024-1.937 0-.319.025-.368-.123-.368-.393v-4.613Z"/>
  <path fill="#2D3476" d="M58.942 16.358c.417.05.981-.171 1.226.099.221.245.074.81.074 1.227-.025.417.196 1.006-.098 1.251-.245.221-.81.074-1.227.074-.44 0-.98.196-1.25-.074s-.074-.834-.074-1.251c0-.418-.196-.957.074-1.203.27-.294.834-.073 1.275-.123Z"/>
  <path fill="#000" d="M71.599 22.518c-.393-1.129-1.08-2.037-2.183-2.527-1.619-.737-3.016-.442-4.488.981-.025-.073-.025-.073-.025-.098 0-1.35 0-2.724-.024-4.074 0-.147.098-.319-.147-.417-1.08-.368-2.526.663-2.526 1.84a416.96 416.96 0 0 0 0 7.83c.024 1.766 1.128 3.239 2.82 3.803 1.104.369 2.232.369 3.36.172 1.84-.319 2.968-1.399 3.434-3.19a7.61 7.61 0 0 0-.221-4.32Zm-2.6 4.148c-.294.785-.858 1.276-1.741 1.325-.932.05-1.643-.294-2.06-1.153-.295-.59-.393-1.227-.368-1.89a3.61 3.61 0 0 1 .245-1.522c.343-.932 1.08-1.472 2.011-1.497 1.006 0 1.619.442 1.987 1.448a5.038 5.038 0 0 1-.074 3.289ZM82.095 25.562c2.11.024 4.194 0 6.303.024.32 0 .466-.073.442-.417-.025-.343 0-.687-.025-1.03-.147-2.258-1.471-3.903-3.531-4.37-.638-.146-1.276-.17-1.938-.122-2.134.147-3.777 1.57-4.243 3.632-.22.982-.22 1.964-.073 2.945.22 1.473.932 2.602 2.28 3.289 1.668.834 3.36.883 5.053.172 1.079-.466 1.839-1.3 2.28-2.479h-2.55c-.196 0-.319.098-.442.221-.76.736-1.692.687-2.6.442-.858-.221-1.25-.884-1.446-1.718-.074-.442-.025-.614.49-.59Zm-.441-1.964c.172-1.055.98-1.816 2.06-1.84 1.226-.05 2.085.589 2.33 1.669.073.343.024.466-.368.441-.613-.024-1.226 0-1.84 0H81.9c-.147 0-.294 0-.245-.27ZM67.58 11.13v3.068c0 .295-.048.393-.367.393a19.41 19.41 0 0 0-1.692 0c-.32.025-.368-.098-.368-.393 0-1.914.024-3.828 0-5.742 0-1.326-.908-2.037-2.183-1.767-.858.171-1.398.883-1.398 1.84 0 1.866-.024 3.73 0 5.596 0 .393-.123.49-.49.466a16.184 16.184 0 0 0-1.545 0c-.32.025-.417-.073-.417-.393.024-1.791 0-3.607 0-5.399v-.49c-.05-.982-.613-1.571-1.57-1.645-.956-.074-1.741.466-1.937 1.374a3.69 3.69 0 0 0-.074.712c0 1.792-.025 3.608 0 5.4 0 .368-.098.466-.466.441a18.3 18.3 0 0 0-1.643 0c-.196 0-.343-.024-.343-.27.049-2.184-.148-4.368.098-6.552.171-1.62 1.079-2.798 2.673-3.338 1.594-.516 3.066-.344 4.292.908.196.196.27.147.441-.025 1.325-1.276 2.894-1.448 4.537-.81 1.594.614 2.281 1.94 2.404 3.584.098 1.006.024 2.012.049 3.043ZM94.437 8.04h-.344c-.613.048-1.03.024-1.324-.737-.417-1.129-2.305-1.202-3.115-.196-.196.22-.343.49-.417.76-.318 1.105-.343 2.234 0 3.363.393 1.227 1.693 1.767 2.87 1.227.49-.221.736-.638.81-1.129.073-.417.269-.49.637-.466.588.024 1.202.049 1.79 0 .515-.05.515.171.417.564a4.445 4.445 0 0 1-3.826 3.387 8.47 8.47 0 0 1-2.084-.025c-2.208-.368-3.557-1.938-3.753-4.368-.073-.908-.024-1.816.221-2.7.564-2.135 2.158-3.362 4.488-3.46.956-.05 1.913.073 2.796.442 1.422.564 2.035 1.718 2.232 3.141.024.196-.025.27-.221.245-.368-.049-.76-.049-1.177-.049ZM79.843 11.278c.025-.883-.098-1.938.073-2.994.368-2.307 1.963-3.78 4.317-4.025.368-.049.736-.049 1.103-.073.221-.025.344.049.344.319a29.613 29.613 0 0 0 0 2.086c0 .245-.098.294-.319.27-.441-.025-.858-.05-1.3.073-.834.197-1.324.712-1.496 1.547-.073.392-.098.81-.098 1.202v4.418c0 .343-.049.49-.441.466-.589-.025-1.202-.05-1.79 0-.393.024-.442-.123-.442-.466.074-.884.049-1.767.049-2.823ZM116.064 1.02c-1.25-.295-2.452.638-2.501 1.914-.025.86 0 1.743 0 2.749-.613-.81-1.275-1.276-2.158-1.424-2.011-.319-3.753.712-4.488 2.651a7.616 7.616 0 0 0-.344 4.246c.319 1.546 1.079 2.773 2.673 3.288a6.997 6.997 0 0 0 3.262.27c2.428-.392 3.728-1.963 3.728-4.417V1.413c0-.172.074-.344-.172-.393Zm-2.869 10.553c-.441.81-1.177 1.129-2.06 1.055-.834-.073-1.398-.515-1.668-1.276-.441-1.227-.466-2.479.074-3.681.319-.736.907-1.13 1.692-1.154.834-.049 1.471.295 1.913 1.007.392.662.49 1.398.49 2.208a3.451 3.451 0 0 1-.441 1.841ZM71.7 10.199c1.08.024 2.158 0 3.262 0h2.624c1.08 0 1.08 0 1.055-1.105-.123-2.945-1.742-4.687-4.636-4.908-2.673-.196-4.733 1.35-5.223 3.927-.197.981-.172 1.963 0 2.945.27 1.521 1.128 2.577 2.526 3.215 1.545.711 3.114.711 4.66.122 1.079-.417 1.839-1.178 2.33-2.208.122-.27.122-.393-.246-.393-.711.024-1.422 0-2.134 0-.147 0-.294-.025-.392.123-.515.662-1.275.711-2.035.662-1.178-.049-2.012-.834-2.183-2.012-.025-.295.073-.368.392-.368Zm-.294-1.964c.122-1.006.956-1.816 1.986-1.865 1.3-.073 2.208.565 2.453 1.669.073.32.049.466-.344.442-.637-.025-1.25 0-1.888 0h-1.888c-.172-.025-.368.073-.32-.246ZM126.783 6.934c-.662-1.521-1.815-2.503-3.482-2.748a9.224 9.224 0 0 0-1.644-.074c-2.133.123-3.556 1.203-4.291 3.215a5.68 5.68 0 0 0-.319 1.423c-.442 3.46 1.741 6.038 5.444 6.038 1.815.024 3.434-.81 4.317-2.822.711-1.645.711-3.363-.025-5.032Zm-2.551 4.295c-.392.908-1.054 1.35-2.035 1.375-.957.024-1.717-.368-2.085-1.277a4.697 4.697 0 0 1 0-3.73c.368-.884 1.104-1.276 2.06-1.276.932 0 1.644.417 2.036 1.3.27.59.319 1.203.319 1.841 0 .614-.049 1.203-.295 1.767ZM105.644 9.119V7.18c-.025-1.35-.589-2.135-1.864-2.601-1.3-.467-2.649-.54-4.023-.246-1.618.368-2.477 1.325-2.697 2.97-.05.343.049.392.343.368a20.592 20.592 0 0 1 1.741 0c.295 0 .466-.05.54-.393.123-.515.466-.834 1.005-.932.589-.099 1.153-.099 1.717.098.393.147.589.441.613.859.025.417-.196.662-.564.81-.343.147-.711.196-1.079.245-.981.123-1.962.196-2.894.589-1.275.54-1.888 1.693-1.741 3.264.123 1.3.932 2.233 2.28 2.479 1.423.245 2.846.196 4.219-.27 1.545-.54 2.354-1.644 2.404-3.289V9.12Zm-2.698 1.914c-.196 1.276-1.545 2.135-2.772 1.767-.49-.147-.784-.49-.833-1.006-.05-.565.122-1.03.637-1.3.393-.222.81-.295 1.251-.369.589-.098 1.177-.172 1.766-.515 0 .515.024.957-.049 1.423Z"/>
</svg>