<svg width="144" height="37" fill="none" xmlns="http://www.w3.org/2000/svg">
  <g clip-path="url(#a)">
    <path d="M52.74 17.48C52.74 7.85 40.94 0 26.37 0 11.81 0 .01 7.85.01 17.48v1.03C0 28.72 10.32 37 26.37 37c16.05 0 26.38-8.28 26.38-18.5l-.01-1.02Z" fill="#2A3375"/>
    <path d="M51.73 17.47c0 9.08-11.35 16.44-25.36 16.44-14 0-25.34-7.36-25.34-16.44 0-9.08 11.35-16.44 25.34-16.44 14 0 25.36 7.37 25.36 16.44Z" fill="#FFD100"/>
    <path d="M17.96 12.28s-.27.3-.1.5c.4.53 1.63.82 2.88.54a8.31 8.31 0 0 0 2.62-1.68 10.5 10.5 0 0 1 3-1.93c.7-.27 1.47-.29 2.18-.06.73.28 1.4.68 1.99 1.2 1.73 1.31 8.7 7.49 9.91 8.55A59.28 59.28 0 0 1 51.6 15.8a13.98 13.98 0 0 0-5.3-8.44c-4.01 1.7-8.91 2.6-13.73.22a13.23 13.23 0 0 0-5.13-1.24c-3.82.09-5.47 1.8-7.22 3.53l-2.25 2.42Z" fill="#fff"/>
    <path d="M40.16 20.05c-.08-.07-8.2-7.23-10.04-8.67a4.43 4.43 0 0 0-2.28-1.1 3.1 3.1 0 0 0-1.08.1 9.78 9.78 0 0 0-2.97 1.81 8.45 8.45 0 0 1-2.9 1.8 4.6 4.6 0 0 1-3.2-.43 1.48 1.48 0 0 1-.53-.6 1.02 1.02 0 0 1 .28-1.07l2.24-2.45.8-.8c-.7.11-1.38.27-2.05.47a8.7 8.7 0 0 1-2.39.45c-.81-.08-1.62-.2-2.43-.38a36.5 36.5 0 0 1-6.46-2.37c-3.2 2.4-5.35 5.43-5.94 8.72.47.12 1.2.35 1.51.41 7.21 1.63 9.45 3.3 9.86 3.62a2.4 2.4 0 0 1 1.93-.8 2.37 2.37 0 0 1 1.82 1.02c.48-.4 1.08-.61 1.7-.61.36 0 .7.06 1.04.18a2.38 2.38 0 0 1 1.45 1.33c.32-.15.66-.22 1-.22.42 0 .83.1 1.2.27a2.57 2.57 0 0 1 1.42 2.9h.29a2.83 2.83 0 0 1 2.45 1.42 2.93 2.93 0 0 1 .06 2.85c.75.46 1.6.7 2.48.68a1.57 1.57 0 0 0 1.16-.52c.07-.1.15-.22.08-.3l-2.03-2.3s-.34-.32-.22-.44c.11-.13.32.05.46.18 1.03.9 2.3 2.2 2.3 2.2s.1.17.57.26a2.13 2.13 0 0 0 1.61-.38c.13-.11.25-.23.35-.37a1.1 1.1 0 0 0-.06-1.35l-2.37-2.71s-.34-.32-.22-.45c.11-.14.32.06.46.18.76.64 1.78 1.72 2.83 2.7a1.9 1.9 0 0 0 2.29-.07 1.51 1.51 0 0 0 .83-1.16 1.55 1.55 0 0 0-.5-1.35l-3.3-3.29s-.33-.3-.22-.45c.12-.15.32.06.48.18 1.03.9 3.82 3.48 3.82 3.48a1.96 1.96 0 0 0 2.24-.03 1.47 1.47 0 0 0 .72-1.18 1.74 1.74 0 0 0-.54-1.36Z" fill="#fff"/>
    <path d="M24.43 24.25a6.9 6.9 0 0 0-1.13.25s0-.23.08-.35c.08-.12.71-2.13-.9-2.84a1.87 1.87 0 0 0-2.25.34c-.07.08-.1.08-.1 0a1.82 1.82 0 0 0-1.26-1.68 2.42 2.42 0 0 0-2.75 1 1.82 1.82 0 0 0-1.24-1.51 1.76 1.76 0 0 0-1.86.52 1.82 1.82 0 0 0 1.32 3.01 1.7 1.7 0 0 0 1.22-.5v.06A2.4 2.4 0 0 0 17 25.26a1.76 1.76 0 0 0 1.71-.26c.15-.11.16-.07.15.07a1.66 1.66 0 0 0 1.24 1.8 1.57 1.57 0 0 0 1.85-.34c.15-.15.2-.12.2.1a2.28 2.28 0 0 0 1.45 2.02 2.2 2.2 0 0 0 2.4-.55 2.27 2.27 0 0 0-1.62-3.82l.04-.03Z" fill="#fff"/>
    <path d="M40.47 19.2a396.2 396.2 0 0 0-9.8-8.5 6.94 6.94 0 0 0-2.09-1.21c-.32-.1-.66-.15-1-.15-.43 0-.86.07-1.27.21-1.1.46-2.11 1.11-3 1.92l-.05.04c-.74.71-1.6 1.27-2.55 1.65-.31.07-.63.1-.95.1a2.4 2.4 0 0 1-1.79-.57c-.04-.06 0-.15.1-.28l2.22-2.42c1.72-1.75 3.36-3.4 7.14-3.5h.18c1.7.08 3.35.48 4.89 1.2a15.12 15.12 0 0 0 6.71 1.63c2.56-.05 5.07-.67 7.37-1.81-.29-.24-.58-.48-.9-.71a15.95 15.95 0 0 1-6.47 1.49c-2.17-.02-4.3-.55-6.24-1.53a13.93 13.93 0 0 0-5.35-1.28h-.2a9.23 9.23 0 0 0-6.17 2.2c-1.04.06-2.06.25-3.05.57-.7.23-1.42.37-2.15.42h-.82A41.46 41.46 0 0 1 7.5 6.5c-.32.22-.63.46-.9.7a37.87 37.87 0 0 0 8.33 2.42c.35 0 .72.06 1.08.06a8.98 8.98 0 0 0 2.43-.45c.5-.16 1-.28 1.52-.38l-.43.43-2.22 2.47a1.16 1.16 0 0 0-.3 1.26c.13.27.34.5.59.65a4.63 4.63 0 0 0 3.32.51c1.1-.39 2.1-1 2.96-1.8a9.73 9.73 0 0 1 2.91-1.77c.27-.07.54-.11.81-.12h.2c.83.14 1.59.51 2.21 1.07 1.84 1.4 9.96 8.6 10.04 8.68a1.55 1.55 0 0 1 .49 1.2 1.36 1.36 0 0 1-.64 1.01c-.32.21-.7.33-1.07.33-.32 0-.63-.1-.9-.28l-3.88-3.51a.89.89 0 0 0-.48-.25.26.26 0 0 0-.22.1c-.16.2 0 .47.24.66l3.24 3.31c.25.24.41.56.46.9a1.56 1.56 0 0 1-.78 1.38 2.1 2.1 0 0 1-1.15.38c-.32 0-.63-.1-.9-.28l-.46-.47c-.89-.85-1.78-1.73-2.38-2.27a.89.89 0 0 0-.48-.26.3.3 0 0 0-.2.09c-.07.08-.13.23.05.48l.17.19 2.37 2.7a.91.91 0 0 1 .06 1.17l-.1.1-.2.22a1.9 1.9 0 0 1-1.17.37h-.32a.83.83 0 0 1-.47-.2c-.13-.13-1.33-1.37-2.32-2.2a.8.8 0 0 0-.45-.26.26.26 0 0 0-.22.1c-.2.22.1.55.23.66l2.02 2.26-.08.15c-.07.1-.32.34-1.05.44h-.27a4.69 4.69 0 0 1-1.98-.59c.17-.43.24-.9.2-1.35a3.1 3.1 0 0 0-1.85-2.83 2.98 2.98 0 0 0-1.16-.24h-.1a2.74 2.74 0 0 0-1.54-2.87 2.64 2.64 0 0 0-2.16-.1 2.6 2.6 0 0 0-1.48-1.28 2.82 2.82 0 0 0-2.78.34 2.53 2.53 0 0 0-2.89-.8c-.33.12-.64.32-.89.58-.63-.48-3.13-2.1-9.8-3.61-.33-.08-1.07-.3-1.52-.44-.08.38-.14.75-.18 1.13l1.48.35c6.83 1.53 9.09 3.13 9.47 3.43a2.57 2.57 0 0 0 0 1.99 2.6 2.6 0 0 0 1.37 1.4 2.53 2.53 0 0 0 1.46.16 3.04 3.04 0 0 0 2.82 2.44c.2 0 .4-.02.58-.08a2.71 2.71 0 0 0 1.59 1.51c.32.13.66.2 1 .21.27 0 .54-.05.79-.14a3.04 3.04 0 0 0 2.22 1.85 2.97 2.97 0 0 0 2.73-.88c.78.46 1.65.72 2.55.77h.4a2.32 2.32 0 0 0 1.72-.86.74.74 0 0 0 .1-.18c.27.08.55.13.83.14.6-.02 1.18-.23 1.65-.61.5-.33.85-.85.97-1.44.18.04.37.06.55.07.6-.01 1.2-.2 1.7-.55a2.45 2.45 0 0 0 1.2-2.21 2.85 2.85 0 0 0 2.91-1.21c.2-.32.32-.67.35-1.04a2.45 2.45 0 0 0-.35-1.47 65.24 65.24 0 0 1 10.53-3.35c0-.37-.08-.74-.14-1.1-3.8.83-7.51 2.04-11.08 3.6Zm-16.05 9.4a2.1 2.1 0 0 1-2.07-2c0-.1 0-.35-.22-.35a.38.38 0 0 0-.25.13c-.27.28-.63.45-1.02.46-.23 0-.45-.05-.67-.14-1.17-.48-1.18-1.3-1.14-1.63a.31.31 0 0 0-.04-.25l-.07-.07h-.07a.32.32 0 0 0-.2.09 1.7 1.7 0 0 1-1 .36 2.16 2.16 0 0 1-1.7-1.13 2.2 2.2 0 0 1-.22-1.53.24.24 0 0 0-.07-.2l-.1-.1-.11.1a1.6 1.6 0 0 1-2.6-.5 1.66 1.66 0 0 1 .27-1.76 1.61 1.61 0 0 1 1.7-.47 1.61 1.61 0 0 1 1.11 1.38l.05.44.25-.37a2.37 2.37 0 0 1 1.87-1.04c.23 0 .47.04.7.1a1.64 1.64 0 0 1 1.13 1.54c0 .22.16.23.2.23.07 0 .14-.04.19-.1a1.61 1.61 0 0 1 1.17-.5c.31 0 .61.07.9.2 1.51.65.83 2.6.82 2.62-.14.33-.14.47 0 .55h.06c.1 0 .2-.03.3-.07.25-.1.53-.16.8-.18a2.04 2.04 0 0 1 2.04 1.26 2.12 2.12 0 0 1-1.2 2.8c-.27.1-.55.14-.84.13h.03ZM142.58 6.33a6.1 6.1 0 0 0-8.67 0 6.76 6.76 0 0 0-1.43 4.28 6.73 6.73 0 0 0 1.43 4.3 6.2 6.2 0 0 0 8.67 0 6.72 6.72 0 0 0 1.43-4.3 6.77 6.77 0 0 0-1.43-4.28Zm-2.36 6.93a2.62 2.62 0 0 1-1.99.93 2.58 2.58 0 0 1-1.99-.93 4.36 4.36 0 0 1-.7-2.65c-.05-.94.2-1.87.7-2.65a2.63 2.63 0 0 1 3.08-.68c.35.16.65.4.9.68.5.78.75 1.71.7 2.65.06.94-.19 1.88-.7 2.67v-.02ZM118.26 5.33a7.16 7.16 0 0 0-3.32-.75c-1.9 0-3.25.5-4.04 1.52a4.42 4.42 0 0 0-.83 2.48h2.85c.05-.39.2-.75.42-1.06a1.88 1.88 0 0 1 1.5-.52c.5-.03 1 .06 1.44.27a1 1 0 0 1 .5.96c0 .2-.06.4-.18.57a.9.9 0 0 1-.47.34c-.38.13-.78.22-1.18.26l-1.01.13c-.91.07-1.8.32-2.62.73a3.25 3.25 0 0 0-1.62 3.06 3.22 3.22 0 0 0 1 2.52c.73.6 1.64.92 2.57.9 6.45.3 6.37-3.44 6.43-4.22V8.13a2.9 2.9 0 0 0-1.44-2.8Zm-1.5 6.54a2.45 2.45 0 0 1-.89 2.07c-.52.37-1.14.57-1.78.57a1.6 1.6 0 0 1-1.04-.35 1.32 1.32 0 0 1-.42-1.11 1.38 1.38 0 0 1 .7-1.26c.42-.22.88-.36 1.36-.42l.66-.13a3.97 3.97 0 0 0 1.38-.49l.03 1.12ZM103.54 7.15a1.9 1.9 0 0 1 1.62.7c.25.35.4.76.46 1.19h3.18a4.5 4.5 0 0 0-1.68-3.42 6.43 6.43 0 0 0-3.67-.96 5.29 5.29 0 0 0-4.13 1.64 6.51 6.51 0 0 0-1.46 4.55 6.48 6.48 0 0 0 1.36 4.24 5.22 5.22 0 0 0 4.22 1.64 5.04 5.04 0 0 0 5.36-4.55h-3.17a2.74 2.74 0 0 1-.56 1.48 1.93 1.93 0 0 1-1.55.56 2.05 2.05 0 0 1-2.1-1.44 5.48 5.48 0 0 1-.3-2.02c-.02-.71.08-1.43.3-2.11.15-.45.44-.84.82-1.1.38-.28.84-.42 1.3-.4ZM96.97 4.63c-6.55 0-6.16 5.86-6.16 5.86v5.97h2.97v-5.61c-.04-.7.08-1.4.34-2.04a2.44 2.44 0 0 1 2.4-1.17H97.35v-3h-.26l-.13-.01ZM86.07 13.34c-.11.17-.25.33-.4.46-.5.34-1.08.5-1.66.45-.56.03-1.1-.1-1.58-.38a2.7 2.7 0 0 1-1.2-2.4h8.2c.03-.75 0-1.5-.1-2.26a5.59 5.59 0 0 0-.88-2.36 4.56 4.56 0 0 0-1.95-1.69 6.26 6.26 0 0 0-2.67-.54 5.37 5.37 0 0 0-4.04 1.59 6.22 6.22 0 0 0-1.55 4.52c0 2.11.57 3.61 1.72 4.57a6.08 6.08 0 0 0 3.97 1.41 5.42 5.42 0 0 0 4.24-1.67c.48-.48.84-1.08 1.03-1.74l-3.13.04Zm-3.99-5.6a2.35 2.35 0 0 1 1.78-.65c.65-.03 1.29.19 1.79.61a2.53 2.53 0 0 1 .78 1.8h-5.08c.05-.65.3-1.27.73-1.76ZM77.06 16.46h-2.67V9.53a1.95 1.95 0 0 0-1.2-2c-.25-.1-.53-.14-.8-.13a1.97 1.97 0 0 0-1.49.61 2.03 2.03 0 0 0-.56 1.52v6.93h-2.8V9.53a1.93 1.93 0 0 0-1.16-2c-.25-.1-.53-.14-.8-.13a1.96 1.96 0 0 0-1.5.6 2.01 2.01 0 0 0-.55 1.53v6.93h-2.68V9.6a4.78 4.78 0 0 1 2.88-4.67 4.6 4.6 0 0 1 1.9-.35 4.1 4.1 0 0 1 3.36 1.6 4.33 4.33 0 0 1 3.37-1.6c2.96 0 4.7 2.08 4.7 5.02v6.86ZM131.6 1.01s-2.99-.32-2.99 2.1v3.22a3.7 3.7 0 0 0-3.11-1.7 4.27 4.27 0 0 0-3.57 1.7A7.45 7.45 0 0 0 120.6 11a6.31 6.31 0 0 0 1.33 4.14c.9 1.07 2.68 1.54 4.24 1.54 5.46 0 5.4-4.74 5.4-4.74L131.6 1Zm-3.57 12.3a2.2 2.2 0 0 1-1.9.9 2.05 2.05 0 0 1-1.87-.9c-.44-.8-.66-1.7-.62-2.62-.02-.86.19-1.71.61-2.46a2.08 2.08 0 0 1 1.9-1c.55 0 1.08.19 1.5.54a3.94 3.94 0 0 1 1.04 3.08c.04.86-.19 1.72-.65 2.45ZM97.58 30.84a2 2 0 0 1-.4.45c-.5.35-1.08.52-1.67.48-.55.03-1.1-.1-1.56-.4A2.7 2.7 0 0 1 92.78 29h8.14c.02-.75-.01-1.5-.1-2.25a5.6 5.6 0 0 0-.9-2.34A4.57 4.57 0 0 0 98 22.72a6.27 6.27 0 0 0-2.62-.52 5.37 5.37 0 0 0-4 1.56 6.18 6.18 0 0 0-1.53 4.52c0 2.1.56 3.61 1.7 4.52a6.03 6.03 0 0 0 3.94 1.39 5.35 5.35 0 0 0 4.16-1.65c.48-.48.84-1.07 1.03-1.72l-3.09.02Zm-3.95-5.53a2.31 2.31 0 0 1 1.78-.66 2.5 2.5 0 0 1 1.73.62 2.48 2.48 0 0 1 .77 1.8H92.9a3.1 3.1 0 0 1 .74-1.76ZM77.19 22.21a3.6 3.6 0 0 0-3.08 1.73v-5.42s-3-.3-3 2.17v8.76s-.06 4.76 5.4 4.76c1.58 0 3.34-.47 4.24-1.56a6.25 6.25 0 0 0 1.35-4.15 7.3 7.3 0 0 0-1.33-4.6 4.33 4.33 0 0 0-3.58-1.69Zm1.22 8.6a2.09 2.09 0 0 1-1.87.9 2.15 2.15 0 0 1-1.9-.9 4.22 4.22 0 0 1-.66-2.45 3.78 3.78 0 0 1 1.05-3c.41-.35.94-.55 1.49-.54a2.04 2.04 0 0 1 1.9 1c.42.74.64 1.59.6 2.45.05.89-.17 1.77-.61 2.54ZM89.27 22.2h-.15c-6.54 0-6.15 5.88-6.15 5.88v5.87h2.97v-5.5c-.04-.7.08-1.4.34-2.04a2.46 2.46 0 0 1 2.39-1.18h.85v-3l-.25-.02ZM60.84 20.68v13.24h2.8V18.55s-2.8-.15-2.8 2.13ZM68.88 18.5h-2.97v3h2.97v-3ZM68.9 22.51h-3v11.44h3V22.5Z" fill="#2A3375"/>
  </g>
  <defs>
    <clipPath id="a">
      <path fill="#fff" d="M0 0h144v37H0z"/>
    </clipPath>
  </defs>
</svg>