<svg width="32" height="32" viewBox="0 0 32 32" fill="none" xmlns="http://www.w3.org/2000/svg">
<g clip-path="url(#clip0_4785_29547)">
<path d="M31.8399 15.5532C31.8399 9.74185 24.7126 5 15.9219 5C7.13121 5 0.00390625 9.74185 0.00390625 15.5532C0.00390625 15.706 0.00390625 16.0989 0.00390625 16.1753C0.00390625 22.3413 6.23222 27.3396 15.9219 27.3396C25.6116 27.3396 31.8453 22.3413 31.8453 16.1753L31.8399 15.5532Z" fill="#2A3375"/>
<path d="M31.2312 15.5478C31.2312 21.0317 24.3785 25.4735 15.9215 25.4735C7.46457 25.4735 0.617188 21.0317 0.617188 15.5478C0.617188 10.0638 7.46995 5.62207 15.9215 5.62207C24.3731 5.62207 31.2312 10.0693 31.2312 15.5478Z" fill="#FFD100"/>
<path d="M10.8392 12.4158C10.8392 12.4158 10.6778 12.5958 10.78 12.7213C11.0223 13.0378 11.7652 13.2124 12.5188 13.0433C13.1044 12.8084 13.6413 12.4641 14.1014 12.0283C14.6347 11.538 15.2463 11.1431 15.9102 10.8606C16.3339 10.7007 16.7982 10.6892 17.2291 10.8279C17.6685 10.9933 18.0751 11.2372 18.4295 11.5482C19.4738 12.3448 23.6888 16.0717 24.4156 16.7156C26.5828 15.767 28.8366 15.036 31.1445 14.533C30.7367 12.4919 29.5975 10.6763 27.9469 9.43643C25.5245 10.4677 22.5638 11.008 19.6569 9.57285C18.6829 9.11543 17.6288 8.85943 16.5562 8.81982C14.2522 8.87439 13.2563 9.91116 12.2012 10.9534L10.8392 12.4158Z" fill="white"/>
<path d="M24.2441 17.1085C24.1957 17.0649 19.2916 12.7432 18.1827 11.8701C17.7957 11.52 17.3171 11.2908 16.8046 11.2099C16.5857 11.1916 16.3653 11.2119 16.1532 11.2699C15.4966 11.523 14.8896 11.8925 14.3606 12.3612C13.8563 12.8412 13.2611 13.2125 12.6111 13.4526C11.9578 13.5988 11.2744 13.504 10.6839 13.1852C10.5464 13.099 10.4347 12.9763 10.3609 12.8305C10.3225 12.7176 10.3179 12.5958 10.3476 12.4803C10.3773 12.3647 10.44 12.2607 10.5278 12.1812L11.879 10.6969L12.3581 10.2222C11.941 10.2843 11.529 10.3773 11.1253 10.5005C10.6592 10.6586 10.1737 10.7504 9.68266 10.7733C9.19094 10.7232 8.70218 10.6467 8.21844 10.5442C6.87639 10.192 5.56977 9.71335 4.31565 9.1145C2.38848 10.566 1.08576 12.3885 0.730469 14.3747C1.01039 14.4511 1.45181 14.5875 1.64022 14.6257C5.9952 15.6079 7.34637 16.6174 7.594 16.8084C7.73896 16.6434 7.91892 16.5139 8.12037 16.4295C8.32181 16.3451 8.53949 16.3081 8.75707 16.3212C8.97465 16.3343 9.18647 16.3973 9.37662 16.5053C9.56676 16.6133 9.73029 16.7636 9.85492 16.9448C10.1462 16.7027 10.5118 16.5715 10.8885 16.5738C11.1011 16.576 11.3119 16.6128 11.5129 16.6829C11.7068 16.7463 11.8852 16.8505 12.0364 16.9887C12.1876 17.127 12.3083 17.2961 12.3904 17.485C12.5795 17.3974 12.7853 17.3527 12.9933 17.3541C13.2441 17.3571 13.4916 17.4129 13.72 17.5178C14.0372 17.6682 14.2942 17.9237 14.4489 18.2421C14.6035 18.5605 14.6464 18.9229 14.5706 19.2694C14.6297 19.2639 14.6891 19.2639 14.7482 19.2694C15.046 19.2706 15.3384 19.3497 15.5972 19.4992C15.8559 19.6487 16.0721 19.8634 16.2248 20.1226C16.3775 20.3817 16.4616 20.6765 16.4689 20.9782C16.4761 21.28 16.4064 21.5785 16.2663 21.8449C16.7162 22.1236 17.2356 22.2657 17.7628 22.2542C17.8942 22.2538 18.0242 22.2259 18.1446 22.1724C18.265 22.1189 18.3732 22.0409 18.4626 21.9431C18.5057 21.8777 18.5541 21.8067 18.511 21.7576L17.2837 20.3716C17.2837 20.3716 17.0791 20.1806 17.1491 20.1042C17.2191 20.0279 17.3429 20.137 17.429 20.2134C18.0535 20.759 18.8179 21.5393 18.8179 21.5393C18.8179 21.5393 18.8825 21.6485 19.1624 21.703C19.3317 21.7318 19.5049 21.7264 19.6721 21.687C19.8394 21.6477 19.9973 21.5753 20.1368 21.4739C20.2121 21.4046 20.2823 21.3299 20.3467 21.2501C20.4323 21.1293 20.4751 20.9828 20.4683 20.8343C20.4614 20.6857 20.4053 20.5438 20.309 20.4316L18.8771 18.7946C18.8771 18.7946 18.6725 18.6037 18.7425 18.5218C18.8125 18.44 18.9363 18.56 19.0224 18.6309C19.48 19.0184 20.0991 19.6732 20.7343 20.2679C20.9385 20.4106 21.1825 20.4834 21.4304 20.4755C21.6783 20.4676 21.9173 20.3796 22.1124 20.2243C22.2464 20.1577 22.3622 20.0588 22.4496 19.9361C22.537 19.8135 22.5932 19.671 22.6135 19.5211C22.6337 19.3712 22.6172 19.2186 22.5655 19.0767C22.5138 18.9347 22.4284 18.8079 22.3169 18.7073L20.3252 16.7211C20.3252 16.7211 20.1206 16.541 20.1906 16.4483C20.2606 16.3555 20.3844 16.481 20.4759 16.5574C21.1003 17.1031 22.7853 18.6582 22.7853 18.6582C22.9858 18.794 23.2222 18.8651 23.4634 18.8622C23.7045 18.8593 23.9392 18.7825 24.1364 18.6419C24.2613 18.568 24.3664 18.4642 24.4424 18.3396C24.5184 18.2149 24.5631 18.0733 24.5725 17.927C24.5806 17.7745 24.5554 17.622 24.4986 17.4805C24.4419 17.339 24.3549 17.212 24.2441 17.1085Z" fill="white"/>
<path d="M14.7485 19.6403C14.5169 19.672 14.2882 19.7231 14.0649 19.7931C14.0649 19.7931 14.0649 19.6513 14.1133 19.5803C14.1618 19.5094 14.544 18.2925 13.575 17.8669C13.3567 17.7464 13.1055 17.7014 12.8597 17.7389C12.6139 17.7763 12.3868 17.8941 12.2131 18.0743C12.1736 18.1179 12.152 18.1179 12.1485 18.0743C12.1431 17.8465 12.0675 17.6262 11.9323 17.4442C11.7972 17.2622 11.6092 17.1276 11.3948 17.0593C11.0907 16.965 10.7648 16.9725 10.4652 17.0806C10.1656 17.1887 9.9083 17.3917 9.73142 17.6596C9.70656 17.4512 9.62294 17.2544 9.49057 17.093C9.3582 16.9316 9.18271 16.8122 8.98512 16.7493C8.78754 16.6865 8.57626 16.6827 8.37661 16.7384C8.17695 16.7942 7.9974 16.9071 7.85947 17.0637C7.72154 17.2203 7.63109 17.4139 7.59897 17.6213C7.56685 17.8286 7.59441 18.041 7.67835 18.2329C7.7623 18.4248 7.89906 18.5881 8.07225 18.7032C8.24544 18.8183 8.4477 18.8803 8.65479 18.8819C8.79155 18.8829 8.92715 18.8565 9.05375 18.804C9.18034 18.7515 9.29541 18.6741 9.39228 18.5763C9.39228 18.5763 9.39228 18.5763 9.39228 18.6145C9.32135 18.9486 9.37086 19.2974 9.53183 19.5978C9.6928 19.8981 9.95459 20.13 10.2697 20.2515C10.4411 20.3163 10.6259 20.3357 10.8067 20.308C10.9876 20.2804 11.1585 20.2064 11.3033 20.0932C11.3894 20.0278 11.4002 20.055 11.3894 20.1369C11.3638 20.3796 11.4254 20.6235 11.5628 20.824C11.7003 21.0244 11.9043 21.1679 12.1377 21.2282C12.3222 21.3189 12.5306 21.3471 12.7321 21.3088C12.9337 21.2705 13.1178 21.1677 13.2574 21.0154C13.3489 20.9281 13.3758 20.9445 13.3812 21.0809C13.3928 21.3478 13.4815 21.6054 13.6362 21.8217C13.791 22.038 14.005 22.2035 14.2517 22.2976C14.4984 22.3917 14.7669 22.4103 15.024 22.3511C15.281 22.2919 15.5152 22.1575 15.6976 21.9645C15.8799 21.7715 16.0023 21.5286 16.0496 21.2657C16.0969 21.0028 16.067 20.7317 15.9637 20.4859C15.8603 20.2401 15.688 20.0305 15.4682 19.8831C15.2483 19.7357 14.9906 19.657 14.727 19.6567L14.7485 19.6403Z" fill="white"/>
<path d="M24.4327 16.59C22.9254 15.2532 19.4371 12.1756 18.5112 11.4553C18.1376 11.1419 17.7132 10.8963 17.257 10.7296C17.0617 10.6685 16.8584 10.6372 16.654 10.6368C16.3923 10.6399 16.1326 10.6841 15.8843 10.7678C15.221 11.0467 14.6094 11.4379 14.0755 11.9246L14.0432 11.9519C13.5967 12.3788 13.0743 12.7158 12.5036 12.945C12.3147 12.9886 12.1214 13.0106 11.9276 13.0105C11.7343 13.0275 11.5396 13.0054 11.3547 12.9454C11.1699 12.8855 10.9987 12.7889 10.851 12.6612C10.8241 12.6285 10.851 12.5739 10.9048 12.4921L12.2506 11.0297C13.2896 9.97656 14.2747 8.97799 16.5571 8.92342H16.6702C17.6896 8.96815 18.691 9.21081 19.6202 9.63824C20.8794 10.2764 22.2659 10.6143 23.6737 10.6259C25.2168 10.5967 26.7348 10.2241 28.1202 9.53457C27.9479 9.38724 27.7703 9.24536 27.5819 9.10349C26.3548 9.67504 25.0239 9.98165 23.6737 10.0038C22.3648 9.99068 21.0761 9.6753 19.9055 9.08166C18.8895 8.61088 17.792 8.34759 16.6756 8.30682H16.5518C15.192 8.27912 13.8685 8.75216 12.8266 9.63824C12.2008 9.67159 11.582 9.78715 10.9856 9.98201C10.5655 10.1216 10.1295 10.206 9.68824 10.233C9.52136 10.233 9.2199 10.233 9.19299 10.233C7.60135 9.94842 6.04028 9.50988 4.53117 8.92342C4.33738 9.05984 4.15435 9.20171 3.99286 9.34358C5.6088 10.0224 7.29556 10.513 9.02073 10.806C9.23067 10.806 9.45138 10.8442 9.67209 10.8442C10.1701 10.8211 10.6627 10.7293 11.1363 10.5713C11.4391 10.479 11.7463 10.4025 12.0568 10.3422L11.7931 10.6041L10.458 12.0937C10.3565 12.1873 10.2848 12.3095 10.2522 12.4446C10.2196 12.5798 10.2275 12.7217 10.275 12.8522C10.3544 13.016 10.4775 13.154 10.6303 13.2506C11.0672 13.4989 11.5614 13.6251 12.0622 13.6162C12.2541 13.6192 12.4457 13.5991 12.6328 13.5561C13.2968 13.3219 13.9054 12.9502 14.42 12.4648C14.9409 12.0086 15.5367 11.6484 16.1803 11.4007C16.3399 11.3558 16.5046 11.332 16.6702 11.3298H16.794C17.2877 11.4149 17.7482 11.6379 18.1236 11.9737C19.2326 12.8195 24.1366 17.1685 24.1851 17.2121C24.2842 17.3046 24.3621 17.418 24.4133 17.5444C24.4644 17.6707 24.4876 17.8069 24.4812 17.9433C24.4669 18.0677 24.4246 18.1871 24.3573 18.2921C24.2901 18.3972 24.1998 18.4851 24.0936 18.549C23.9011 18.6763 23.6773 18.7462 23.4476 18.7509C23.256 18.7473 23.0693 18.6886 22.9093 18.5817C22.9093 18.5817 21.1759 17.0048 20.5622 16.4591C20.4833 16.3788 20.3817 16.3254 20.2715 16.3063C20.2468 16.3052 20.2223 16.3101 20.1998 16.3205C20.1773 16.331 20.1576 16.3467 20.1423 16.3663C20.0454 16.4864 20.1423 16.6555 20.2823 16.7647L22.2418 18.7673C22.3934 18.911 22.4905 19.1041 22.5163 19.3129C22.5193 19.4811 22.4773 19.647 22.3948 19.793C22.3124 19.939 22.1925 20.0597 22.048 20.1423C21.8435 20.2857 21.6021 20.3654 21.3535 20.3715C21.1621 20.3671 20.9756 20.3085 20.8152 20.2024L20.5353 19.9186C19.997 19.4057 19.4587 18.8764 19.098 18.549C19.0198 18.4667 18.9182 18.4114 18.8073 18.3907C18.7606 18.3917 18.7161 18.4113 18.6835 18.4453C18.6404 18.4944 18.6081 18.5872 18.7158 18.7345C18.7642 18.7945 18.8181 18.8491 18.8181 18.8491L20.25 20.4861C20.3352 20.5803 20.3851 20.7018 20.391 20.8294C20.3969 20.957 20.3584 21.0827 20.2823 21.1846L20.2285 21.25C20.1881 21.2964 20.145 21.3401 20.0993 21.381C19.8961 21.5305 19.6505 21.6091 19.3995 21.6047C19.335 21.6108 19.2701 21.6108 19.2057 21.6047C19.1005 21.5958 19.0008 21.5539 18.9204 21.4847C18.8396 21.4028 18.1183 20.6553 17.5207 20.1533C17.4484 20.0729 17.3519 20.0192 17.2462 20.0005C17.2216 19.9998 17.1971 20.0049 17.1747 20.0153C17.1523 20.0257 17.1326 20.0412 17.117 20.0605C16.9986 20.1915 17.1762 20.3879 17.2516 20.4588L18.4736 21.823L18.4251 21.9103C18.382 21.9703 18.2313 22.1177 17.7899 22.1777H17.6284C17.2092 22.1499 16.8011 22.0288 16.4333 21.823C16.5344 21.563 16.5767 21.2833 16.5571 21.0045C16.5579 20.7618 16.5113 20.5214 16.4202 20.297C16.3291 20.0726 16.1952 19.8687 16.0261 19.6968C15.8571 19.525 15.6563 19.3886 15.4352 19.2956C15.2141 19.2026 14.977 19.1547 14.7376 19.1547H14.673C14.7258 18.8027 14.664 18.4429 14.4969 18.1298C14.3298 17.8167 14.0666 17.5673 13.7471 17.4195C13.506 17.3121 13.2461 17.2546 12.9827 17.2503C12.7988 17.2535 12.6167 17.2886 12.4444 17.354C12.2565 16.9896 11.936 16.7136 11.5508 16.5846C11.3403 16.5062 11.1183 16.4637 10.8941 16.4591C10.5268 16.4563 10.1683 16.573 9.87127 16.7919C9.7377 16.6195 9.56945 16.4779 9.37771 16.3765C9.18597 16.2752 8.97513 16.2163 8.75921 16.2039C8.5433 16.1915 8.32726 16.2259 8.12545 16.3047C7.92365 16.3835 7.74071 16.505 7.58881 16.661C7.2066 16.3663 5.69932 15.395 1.66733 14.4783C1.47354 14.4292 1.02674 14.2982 0.752194 14.2164C0.703746 14.4401 0.671447 14.6638 0.644531 14.893L1.53814 15.1058C5.66164 16.0335 7.02357 16.9993 7.25505 17.1794C7.17618 17.3693 7.1359 17.5735 7.13662 17.7796C7.13591 17.9853 7.17517 18.189 7.25216 18.3793C7.32915 18.5696 7.44236 18.7426 7.58532 18.8886C7.72828 19.0345 7.89821 19.1505 8.08538 19.2298C8.27255 19.3092 8.47332 19.3504 8.6762 19.3511C8.77191 19.3504 8.86737 19.3413 8.96151 19.3238C9.02298 19.6343 9.16296 19.9233 9.36773 20.1624C9.57251 20.4015 9.83506 20.5827 10.1297 20.688C10.3012 20.7569 10.4835 20.7939 10.668 20.7971C10.7863 20.7973 10.9041 20.7808 11.0179 20.748C11.1057 20.9595 11.2363 21.1499 11.4014 21.3069C11.5665 21.4639 11.7623 21.584 11.9761 21.6593C12.1692 21.7396 12.3756 21.7822 12.5844 21.7848C12.7457 21.7852 12.906 21.7575 13.0581 21.703C13.1718 21.9869 13.3537 22.2375 13.5873 22.4321C13.8209 22.6266 14.0987 22.7589 14.3956 22.8169C14.6924 22.8749 14.9989 22.8568 15.2871 22.7643C15.5753 22.6717 15.836 22.5076 16.0457 22.2868C16.5159 22.5618 17.0433 22.7207 17.5853 22.7506H17.8222C18.0225 22.7441 18.2193 22.6945 18.3993 22.6051C18.5793 22.5158 18.7386 22.3887 18.8665 22.2322C18.8931 22.1992 18.9148 22.1624 18.9311 22.1231C19.0919 22.1724 19.2585 22.1999 19.4264 22.205C19.7889 22.1972 20.1389 22.0687 20.4223 21.8394C20.7236 21.6404 20.9346 21.3284 21.009 20.9718C21.1188 20.9955 21.2306 21.0083 21.3428 21.01C21.7086 21.0036 22.0644 20.8878 22.3656 20.6771C22.5946 20.5426 22.7835 20.3478 22.9124 20.1135C23.0412 19.8791 23.1053 19.6139 23.0977 19.3457C23.2095 19.3674 23.323 19.3783 23.4368 19.3784C23.7784 19.3759 24.1116 19.2716 24.395 19.0783C24.5831 18.9624 24.7416 18.8032 24.8576 18.6136C24.9735 18.4239 25.0438 18.2093 25.0625 17.987C25.0882 17.6753 25.0146 17.3636 24.8526 17.0975C26.9123 16.2455 29.039 15.5702 31.2101 15.0785C31.2101 14.8548 31.1617 14.6311 31.124 14.4074C28.8292 14.9141 26.5883 15.6451 24.4327 16.59ZM14.743 22.265C14.421 22.2681 14.1105 22.1439 13.8773 21.9187C13.6442 21.6936 13.5067 21.3852 13.4941 21.0591C13.4941 20.999 13.4941 20.8463 13.3596 20.8463C13.3008 20.853 13.2469 20.8823 13.2088 20.9281C13.0475 21.0978 12.8275 21.1976 12.5951 21.2064C12.4563 21.204 12.3192 21.1743 12.1914 21.1191C11.4808 20.8299 11.4754 20.3333 11.5024 20.1369C11.509 20.111 11.5101 20.0839 11.5054 20.0575C11.5008 20.0311 11.4906 20.0061 11.4754 19.9841L11.4324 19.9459H11.3893C11.3436 19.947 11.2998 19.9644 11.2655 19.995C11.0924 20.1306 10.8813 20.207 10.6626 20.2133C10.5459 20.2135 10.4305 20.1893 10.3235 20.1423C10.0269 20.0311 9.78061 19.8139 9.63093 19.5315C9.48124 19.2492 9.43845 18.9211 9.51059 18.609C9.51407 18.5861 9.51196 18.5627 9.50445 18.5408C9.49695 18.519 9.48427 18.4993 9.46753 18.4835L9.40293 18.4289L9.33833 18.489C9.16044 18.6669 8.92072 18.7668 8.67082 18.7673C8.48203 18.7694 8.2967 18.7158 8.13736 18.6132C7.97803 18.5105 7.85155 18.3631 7.77331 18.189C7.69507 18.0148 7.66844 17.8213 7.69665 17.6321C7.72486 17.4428 7.8067 17.266 7.93222 17.123C8.05774 16.9801 8.22154 16.8772 8.40369 16.8268C8.58584 16.7765 8.77849 16.7808 8.95824 16.8394C9.13798 16.898 9.29707 17.0082 9.41615 17.1567C9.53524 17.3052 9.60919 17.4856 9.62902 17.6759L9.66132 17.9378L9.80667 17.7141C9.93329 17.5269 10.1016 17.3726 10.298 17.2636C10.4944 17.1546 10.7133 17.0939 10.9371 17.0866C11.0795 17.0878 11.2209 17.1098 11.357 17.1521C11.5525 17.2153 11.7238 17.3385 11.8473 17.5047C11.9707 17.6709 12.0402 17.8718 12.0461 18.0797C12.0461 18.2107 12.143 18.2161 12.1645 18.2161C12.2085 18.2121 12.2492 18.1905 12.2775 18.1561C12.3692 18.0588 12.4795 17.9815 12.6017 17.929C12.7239 17.8764 12.8554 17.8497 12.9881 17.8505C13.1735 17.8554 13.3562 17.8961 13.5264 17.9706C14.4416 18.3689 14.0271 19.5476 14.0217 19.5585C13.9409 19.7549 13.9409 19.8422 14.0217 19.8913H14.0594C14.1203 19.885 14.18 19.8704 14.237 19.8477C14.3935 19.7849 14.5589 19.748 14.7269 19.7385C14.8974 19.7272 15.0684 19.7514 15.2294 19.8098C15.3903 19.8681 15.5377 19.9593 15.6625 20.0777C15.7872 20.1961 15.8867 20.3392 15.9546 20.4982C16.0226 20.6571 16.0577 20.8285 16.0577 21.0018C16.0577 21.175 16.0226 21.3464 15.9546 21.5054C15.8867 21.6643 15.7872 21.8074 15.6625 21.9258C15.5377 22.0442 15.3903 22.1354 15.2294 22.1938C15.0684 22.2521 14.8974 22.2764 14.7269 22.265H14.743Z" fill="#2A3375"/>
</g>
<defs>
<clipPath id="clip0_4785_29547">
<rect width="32" height="22.3396" fill="white" transform="translate(0 5)"/>
</clipPath>
</defs>
</svg>
